<svg width="98" height="19" viewBox="0 0 98 19" fill="none" xmlns="http://www.w3.org/2000/svg">
<path d="M16.85 0.114746V18.3147H13.392L4.31802 7.26475V18.3147H0.15802V0.114746H3.64202L12.69 11.1647V0.114746H16.85Z" fill="black"/>
<path d="M26.5121 4.11875C28.6787 4.11875 30.3427 4.63875 31.5041 5.67875C32.6654 6.70141 33.2461 8.25275 33.2461 10.3327V18.3147H29.4501V16.5727C28.6874 17.8727 27.2661 18.5227 25.1861 18.5227C24.1114 18.5227 23.1754 18.3407 22.3781 17.9767C21.5981 17.6127 21.0001 17.1101 20.5841 16.4687C20.1681 15.8274 19.9601 15.0994 19.9601 14.2847C19.9601 12.9847 20.4454 11.9621 21.4161 11.2167C22.4041 10.4714 23.9207 10.0987 25.9661 10.0987H29.1901C29.1901 9.21475 28.9214 8.53875 28.3841 8.07075C27.8467 7.58541 27.0407 7.34275 25.9661 7.34275C25.2207 7.34275 24.4841 7.46408 23.7561 7.70675C23.0454 7.93208 22.4387 8.24408 21.9361 8.64275L20.4801 5.80875C21.2427 5.27141 22.1527 4.85541 23.2101 4.56075C24.2847 4.26608 25.3854 4.11875 26.5121 4.11875ZM26.2001 15.7927C26.8934 15.7927 27.5087 15.6367 28.0461 15.3247C28.5834 14.9954 28.9647 14.5187 29.1901 13.8947V12.4647H26.4081C24.7441 12.4647 23.9121 13.0107 23.9121 14.1027C23.9121 14.6227 24.1114 15.0387 24.5101 15.3507C24.9261 15.6454 25.4894 15.7927 26.2001 15.7927Z" fill="black"/>
<path d="M45.9389 17.6387C45.5403 17.9334 45.0463 18.1587 44.4569 18.3147C43.8849 18.4534 43.2783 18.5227 42.6369 18.5227C40.9729 18.5227 39.6816 18.0981 38.7629 17.2487C37.8616 16.3994 37.4109 15.1514 37.4109 13.5047V7.75875H35.2529V4.63875H37.4109V1.23275H41.4669V4.63875H44.9509V7.75875H41.4669V13.4527C41.4669 14.0421 41.6143 14.5014 41.9089 14.8307C42.2209 15.1427 42.6543 15.2987 43.2089 15.2987C43.8503 15.2987 44.3963 15.1254 44.8469 14.7787L45.9389 17.6387Z" fill="black"/>
<path d="M62.3078 4.32675V18.3147H58.4598V16.6507C57.9224 17.2574 57.2811 17.7254 56.5358 18.0547C55.7904 18.3667 54.9844 18.5227 54.1178 18.5227C52.2804 18.5227 50.8244 17.9941 49.7498 16.9367C48.6751 15.8794 48.1378 14.3107 48.1378 12.2307V4.32675H52.1938V11.6327C52.1938 13.8861 53.1384 15.0127 55.0278 15.0127C55.9984 15.0127 56.7784 14.7007 57.3678 14.0767C57.9571 13.4354 58.2518 12.4907 58.2518 11.2427V4.32675H62.3078Z" fill="black"/>
<path d="M69.9394 6.17275C70.4247 5.49675 71.0747 4.98541 71.8894 4.63875C72.7214 4.29208 73.6747 4.11875 74.7494 4.11875V7.86275C74.2987 7.82808 73.9954 7.81075 73.8394 7.81075C72.678 7.81075 71.768 8.14008 71.1094 8.79875C70.4507 9.44008 70.1214 10.4107 70.1214 11.7107V18.3147H66.0654V4.32675H69.9394V6.17275Z" fill="black"/>
<path d="M90.7361 11.3727C90.7361 11.4247 90.7101 11.7887 90.6581 12.4647H80.0761C80.2668 13.3314 80.7175 14.0161 81.4281 14.5187C82.1388 15.0214 83.0228 15.2727 84.0801 15.2727C84.8081 15.2727 85.4495 15.1687 86.0041 14.9607C86.5761 14.7354 87.1048 14.3887 87.5901 13.9207L89.7481 16.2607C88.4308 17.7687 86.5068 18.5227 83.9761 18.5227C82.3988 18.5227 81.0035 18.2194 79.7901 17.6127C78.5768 16.9887 77.6408 16.1307 76.9821 15.0387C76.3235 13.9467 75.9941 12.7074 75.9941 11.3207C75.9941 9.95141 76.3148 8.72075 76.9561 7.62875C77.6148 6.51941 78.5075 5.66141 79.6341 5.05475C80.7781 4.43075 82.0521 4.11875 83.4561 4.11875C84.8255 4.11875 86.0648 4.41341 87.1741 5.00275C88.2835 5.59208 89.1501 6.44141 89.7741 7.55075C90.4155 8.64275 90.7361 9.91675 90.7361 11.3727ZM83.4821 7.18675C82.5635 7.18675 81.7921 7.44675 81.1681 7.96675C80.5441 8.48675 80.1628 9.19741 80.0241 10.0987H86.9141C86.7755 9.21475 86.3941 8.51275 85.7701 7.99275C85.1461 7.45541 84.3835 7.18675 83.4821 7.18675Z" fill="black"/>
<path d="M94.9705 18.5227C94.2598 18.5227 93.6618 18.2801 93.1765 17.7947C92.6911 17.3094 92.4485 16.7027 92.4485 15.9747C92.4485 15.2294 92.6911 14.6314 93.1765 14.1807C93.6618 13.7127 94.2598 13.4787 94.9705 13.4787C95.6811 13.4787 96.2791 13.7127 96.7645 14.1807C97.2498 14.6314 97.4925 15.2294 97.4925 15.9747C97.4925 16.7027 97.2498 17.3094 96.7645 17.7947C96.2791 18.2801 95.6811 18.5227 94.9705 18.5227Z" fill="black"/>
</svg>
